<svg width="284" height="328" xmlns="http://www.w3.org/2000/svg" xmlns:xlink="http://www.w3.org/1999/xlink" overflow="hidden"><defs><clipPath id="clip0"><rect x="53" y="335" width="284" height="328"/></clipPath></defs><g clip-path="url(#clip0)" transform="translate(-53 -335)"><path d="M195.06 336.095 335.73 417.311 328.875 429.185 188.204 347.969Z" fill="#BFBFBF" fill-rule="evenodd"/><path d="M53.9076 417.311 194.578 336.095 201.433 347.969 60.7627 429.185Z" fill="#BFBFBF" fill-rule="evenodd"/><path d="M335.882 580.99 195.212 662.206 188.357 650.333 329.027 569.117Z" fill="#BFBFBF" fill-rule="evenodd"/><rect x="322" y="418" width="14" height="162" fill="#BFBFBF"/><rect x="54" y="418" width="14" height="162" fill="#BFBFBF"/><path d="M194.578 662.206 53.9075 580.99 60.7626 569.117 201.433 650.333Z" fill="#BFBFBF" fill-rule="evenodd"/><path d="M145.295 423.378C171.118 424.048 195.177 436.632 210.455 457.462" stroke="#BFBFBF" stroke-width="11.3333" stroke-miterlimit="8" fill="none" fill-rule="evenodd"/><path d="M275.142 490.929C249.319 490.26 225.26 477.675 209.982 456.846" stroke="#BFBFBF" stroke-width="11.3333" stroke-miterlimit="8" fill="none" fill-rule="evenodd"/><path d="M128.121 464.994C153.944 465.663 178.003 478.248 193.281 499.077" stroke="#BFBFBF" stroke-width="11.3333" stroke-miterlimit="8" fill="none" fill-rule="evenodd"/><path d="M257.968 532.544C232.145 531.875 208.086 519.29 192.808 498.461" stroke="#BFBFBF" stroke-width="11.3333" stroke-miterlimit="8" fill="none" fill-rule="evenodd"/><path d="M111.006 506.585C136.829 507.254 160.888 519.839 176.166 540.669" stroke="#BFBFBF" stroke-width="11.3333" stroke-miterlimit="8" fill="none" fill-rule="evenodd"/><path d="M240.853 574.136C215.029 573.467 190.97 560.882 175.693 540.052" stroke="#BFBFBF" stroke-width="11.3333" stroke-miterlimit="8" fill="none" fill-rule="evenodd"/></g></svg>